<svg xmlns="http://www.w3.org/2000/svg" viewBox="0 0 500 500"><g id="freepik--background-complete--inject-452"><rect x="416.78" y="398.49" width="33.12" height="0.25" style="fill:#ebebeb"></rect><rect x="322.53" y="401.21" width="8.69" height="0.25" style="fill:#ebebeb"></rect><rect x="396.59" y="389.21" width="19.19" height="0.25" style="fill:#ebebeb"></rect><rect x="52.46" y="390.89" width="43.19" height="0.25" style="fill:#ebebeb"></rect><rect x="104.56" y="390.89" width="6.33" height="0.25" style="fill:#ebebeb"></rect><rect x="131.47" y="395.11" width="93.68" height="0.25" style="fill:#ebebeb"></rect><path d="M237,337.8H43.92a5.71,5.71,0,0,1-5.71-5.71V60.66A5.71,5.71,0,0,1,43.92,55H237a5.71,5.71,0,0,1,5.71,5.71V332.09A5.71,5.71,0,0,1,237,337.8ZM43.92,55.2a5.47,5.47,0,0,0-5.46,5.46V332.09a5.47,5.47,0,0,0,5.46,5.46H237a5.47,5.47,0,0,0,5.46-5.46V60.66A5.47,5.47,0,0,0,237,55.2Z" style="fill:#ebebeb"></path><path d="M453.31,337.8H260.21a5.72,5.72,0,0,1-5.71-5.71V60.66A5.72,5.72,0,0,1,260.21,55h193.1A5.71,5.71,0,0,1,459,60.66V332.09A5.71,5.71,0,0,1,453.31,337.8ZM260.21,55.2a5.47,5.47,0,0,0-5.46,5.46V332.09a5.47,5.47,0,0,0,5.46,5.46h193.1a5.47,5.47,0,0,0,5.46-5.46V60.66a5.47,5.47,0,0,0-5.46-5.46Z" style="fill:#ebebeb"></path><rect y="382.4" width="500" height="0.25" style="fill:#ebebeb"></rect><rect x="346.27" y="140.74" width="84.58" height="213.09" style="fill:#e0e0e0"></rect><path d="M430.85,138.87V355.7h15.58V138.87Z" style="fill:#e6e6e6"></path><path d="M331.44,138.87V355.7H347V138.87Z" style="fill:#e6e6e6"></path><path d="M328.79,138.87V355.7H432.72V138.87ZM429,142.61v38.88H332.53V142.61ZM332.53,266.72V227.84H429v38.88ZM429,270.46v38.88H332.53V270.46Zm-96.45-46.35V185.23H429v38.88Zm0,127.85V313.08H429V352Z" style="fill:#f5f5f5"></path><rect x="395.29" y="151.68" width="3.59" height="30.17" transform="translate(794.17 333.52) rotate(180)" style="fill:#e6e6e6"></rect><rect x="398.88" y="151.68" width="3.59" height="30.17" transform="translate(801.36 333.52) rotate(180)" style="fill:#e0e0e0"></rect><rect x="388.1" y="153.8" width="7.19" height="28.05" transform="translate(783.38 335.64) rotate(180)" style="fill:#e6e6e6"></rect><rect x="379.85" y="151.68" width="4.65" height="30.17" transform="translate(764.36 333.52) rotate(180)" style="fill:#f0f0f0"></rect><rect x="384.5" y="151.68" width="3.59" height="30.17" transform="translate(772.6 333.52) rotate(180)" style="fill:#ebebeb"></rect><rect x="352.59" y="151.68" width="4.65" height="30.17" transform="translate(709.82 333.52) rotate(180)" style="fill:#e6e6e6"></rect><rect x="357.23" y="151.68" width="3.59" height="30.17" transform="translate(718.06 333.52) rotate(180)" style="fill:#ebebeb"></rect><rect x="368.02" y="151.68" width="4.65" height="30.17" transform="translate(740.68 333.52) rotate(180)" style="fill:#e6e6e6"></rect><rect x="372.66" y="151.68" width="3.59" height="30.17" transform="translate(748.92 333.52) rotate(180)" style="fill:#e0e0e0"></rect><rect x="345.4" y="152.39" width="7.19" height="29.45" transform="translate(697.99 334.23) rotate(180)" style="fill:#ebebeb"></rect><rect x="341.8" y="152.39" width="3.6" height="29.45" transform="translate(687.2 334.23) rotate(180)" style="fill:#e0e0e0"></rect><rect x="363.23" y="152.39" width="4.79" height="29.45" transform="translate(731.24 334.23) rotate(180)" style="fill:#e0e0e0"></rect><rect x="360.83" y="152.39" width="2.4" height="29.45" transform="translate(724.05 334.23) rotate(180)" style="fill:#f0f0f0"></rect><rect x="372.66" y="153.8" width="7.19" height="28.05" transform="translate(752.52 335.64) rotate(180)" style="fill:#f5f5f5"></rect><rect x="413.26" y="151.68" width="4.65" height="30.17" transform="translate(831.17 333.52) rotate(180)" style="fill:#ebebeb"></rect><rect x="417.91" y="151.68" width="3.59" height="30.17" transform="translate(839.41 333.52) rotate(180)" style="fill:#e6e6e6"></rect><rect x="406.07" y="152.39" width="7.19" height="29.45" transform="translate(819.33 334.23) rotate(180)" style="fill:#e0e0e0"></rect><rect x="402.48" y="152.39" width="3.6" height="29.45" transform="translate(808.55 334.23) rotate(180)" style="fill:#ebebeb"></rect><rect x="423.9" y="152.39" width="4.79" height="29.45" transform="translate(852.59 334.23) rotate(180)" style="fill:#ebebeb"></rect><rect x="421.5" y="152.39" width="2.4" height="29.45" transform="translate(845.4 334.23) rotate(180)" style="fill:#fafafa"></rect><rect x="371.61" y="193.92" width="3.59" height="30.17" style="fill:#e6e6e6"></rect><rect x="368.02" y="193.92" width="3.59" height="30.17" style="fill:#e0e0e0"></rect><rect x="375.21" y="196.04" width="7.19" height="28.05" style="fill:#e6e6e6"></rect><rect x="385.99" y="193.92" width="4.65" height="30.17" style="fill:#f0f0f0"></rect><rect x="382.4" y="193.92" width="3.6" height="30.17" style="fill:#ebebeb"></rect><rect x="413.26" y="193.92" width="4.65" height="30.17" style="fill:#e6e6e6"></rect><rect x="409.67" y="193.92" width="3.59" height="30.17" style="fill:#ebebeb"></rect><rect x="397.83" y="193.92" width="4.65" height="30.17" style="fill:#e6e6e6"></rect><rect x="394.23" y="193.92" width="3.59" height="30.17" style="fill:#e0e0e0"></rect><rect x="417.91" y="194.64" width="7.19" height="29.45" style="fill:#ebebeb"></rect><rect x="425.1" y="194.64" width="3.6" height="29.45" style="fill:#e0e0e0"></rect><rect x="402.48" y="194.64" width="4.79" height="29.45" style="fill:#e0e0e0"></rect><rect x="407.27" y="194.64" width="2.4" height="29.45" style="fill:#f0f0f0"></rect><rect x="390.64" y="196.04" width="7.19" height="28.05" style="fill:#f5f5f5"></rect><rect x="352.59" y="193.92" width="4.65" height="30.17" style="fill:#ebebeb"></rect><rect x="348.99" y="193.92" width="3.59" height="30.17" style="fill:#e6e6e6"></rect><rect x="357.23" y="194.64" width="7.19" height="29.45" style="fill:#e0e0e0"></rect><rect x="364.42" y="194.64" width="3.6" height="29.45" style="fill:#ebebeb"></rect><rect x="341.8" y="194.64" width="4.79" height="29.45" style="fill:#ebebeb"></rect><rect x="346.6" y="194.64" width="2.4" height="29.45" style="fill:#fafafa"></rect><rect x="371.61" y="236.91" width="3.59" height="30.17" style="fill:#e6e6e6"></rect><rect x="368.02" y="236.91" width="3.59" height="30.17" style="fill:#e0e0e0"></rect><rect x="375.21" y="239.03" width="7.19" height="28.05" style="fill:#e6e6e6"></rect><rect x="385.99" y="236.91" width="4.65" height="30.17" style="fill:#f0f0f0"></rect><rect x="382.4" y="236.91" width="3.6" height="30.17" style="fill:#ebebeb"></rect><rect x="413.26" y="236.91" width="4.65" height="30.17" style="fill:#e6e6e6"></rect><rect x="409.67" y="236.91" width="3.59" height="30.17" style="fill:#ebebeb"></rect><rect x="397.83" y="236.91" width="4.65" height="30.17" style="fill:#e6e6e6"></rect><rect x="394.23" y="236.91" width="3.59" height="30.17" style="fill:#e0e0e0"></rect><rect x="417.91" y="237.63" width="7.19" height="29.45" style="fill:#ebebeb"></rect><rect x="425.1" y="237.63" width="3.6" height="29.45" style="fill:#e0e0e0"></rect><rect x="402.48" y="237.63" width="4.79" height="29.45" style="fill:#e0e0e0"></rect><rect x="407.27" y="237.63" width="2.4" height="29.45" style="fill:#f0f0f0"></rect><rect x="390.64" y="239.03" width="7.19" height="28.05" style="fill:#f5f5f5"></rect><rect x="352.59" y="236.91" width="4.65" height="30.17" style="fill:#ebebeb"></rect><rect x="348.99" y="236.91" width="3.59" height="30.17" style="fill:#e6e6e6"></rect><rect x="357.23" y="237.63" width="7.19" height="29.45" style="fill:#e0e0e0"></rect><rect x="364.42" y="237.63" width="3.6" height="29.45" style="fill:#ebebeb"></rect><rect x="341.8" y="237.63" width="4.79" height="29.45" style="fill:#ebebeb"></rect><rect x="346.6" y="237.63" width="2.4" height="29.45" style="fill:#fafafa"></rect><rect x="395.29" y="279.91" width="3.59" height="30.17" transform="translate(794.17 589.98) rotate(180)" style="fill:#e6e6e6"></rect><rect x="398.88" y="279.91" width="3.59" height="30.17" transform="translate(801.36 589.98) rotate(180)" style="fill:#e0e0e0"></rect><rect x="388.1" y="279.91" width="7.19" height="28.05" transform="translate(783.38 587.86) rotate(180)" style="fill:#e6e6e6"></rect><rect x="379.85" y="279.91" width="4.65" height="30.17" transform="translate(764.36 589.98) rotate(180)" style="fill:#f0f0f0"></rect><rect x="384.5" y="279.91" width="3.59" height="30.17" transform="translate(772.6 589.98) rotate(180)" style="fill:#ebebeb"></rect><rect x="352.59" y="279.91" width="4.65" height="30.17" transform="translate(709.82 589.98) rotate(180)" style="fill:#e6e6e6"></rect><rect x="357.23" y="279.91" width="3.59" height="30.17" transform="translate(718.06 589.98) rotate(180)" style="fill:#ebebeb"></rect><rect x="368.02" y="279.91" width="4.65" height="30.17" transform="translate(740.68 589.98) rotate(180)" style="fill:#e6e6e6"></rect><rect x="372.66" y="279.91" width="3.59" height="30.17" transform="translate(748.92 589.98) rotate(180)" style="fill:#e0e0e0"></rect><rect x="345.4" y="279.91" width="7.19" height="29.45" transform="translate(697.99 589.27) rotate(180)" style="fill:#ebebeb"></rect><rect x="341.8" y="279.91" width="3.6" height="29.45" transform="translate(687.2 589.27) rotate(180)" style="fill:#e0e0e0"></rect><rect x="363.23" y="279.91" width="4.79" height="29.45" transform="translate(731.24 589.27) rotate(180)" style="fill:#e0e0e0"></rect><rect x="360.83" y="279.91" width="2.4" height="29.45" transform="translate(724.05 589.27) rotate(180)" style="fill:#f0f0f0"></rect><rect x="372.66" y="279.91" width="7.19" height="28.05" transform="translate(752.52 587.86) rotate(180)" style="fill:#f5f5f5"></rect><rect x="413.26" y="279.91" width="4.65" height="30.17" transform="translate(831.17 589.98) rotate(180)" style="fill:#ebebeb"></rect><rect x="417.91" y="279.91" width="3.59" height="30.17" transform="translate(839.41 589.98) rotate(180)" style="fill:#e6e6e6"></rect><rect x="406.07" y="279.91" width="7.19" height="29.45" transform="translate(819.33 589.27) rotate(180)" style="fill:#e0e0e0"></rect><rect x="402.48" y="279.91" width="3.6" height="29.45" transform="translate(808.55 589.27) rotate(180)" style="fill:#ebebeb"></rect><rect x="423.9" y="279.91" width="4.79" height="29.45" transform="translate(852.59 589.27) rotate(180)" style="fill:#ebebeb"></rect><rect x="421.5" y="279.91" width="2.4" height="29.45" transform="translate(845.4 589.27) rotate(180)" style="fill:#fafafa"></rect><rect x="371.61" y="322.9" width="3.59" height="30.17" style="fill:#e6e6e6"></rect><rect x="368.02" y="322.9" width="3.59" height="30.17" style="fill:#e0e0e0"></rect><rect x="375.21" y="322.9" width="7.19" height="28.05" style="fill:#e6e6e6"></rect><rect x="385.99" y="322.9" width="4.65" height="30.17" style="fill:#f0f0f0"></rect><rect x="382.4" y="322.9" width="3.6" height="30.17" style="fill:#ebebeb"></rect><rect x="413.26" y="322.9" width="4.65" height="30.17" style="fill:#e6e6e6"></rect><rect x="409.67" y="322.9" width="3.59" height="30.17" style="fill:#ebebeb"></rect><rect x="397.83" y="322.9" width="4.65" height="30.17" style="fill:#e6e6e6"></rect><rect x="394.23" y="322.9" width="3.59" height="30.17" style="fill:#e0e0e0"></rect><rect x="417.91" y="322.9" width="7.19" height="29.45" style="fill:#ebebeb"></rect><rect x="425.1" y="322.9" width="3.6" height="29.45" style="fill:#e0e0e0"></rect><rect x="402.48" y="322.9" width="4.79" height="29.45" style="fill:#e0e0e0"></rect><rect x="407.27" y="322.9" width="2.4" height="29.45" style="fill:#f0f0f0"></rect><rect x="390.64" y="322.9" width="7.19" height="28.05" style="fill:#f5f5f5"></rect><rect x="352.59" y="322.9" width="4.65" height="30.17" style="fill:#ebebeb"></rect><rect x="348.99" y="322.9" width="3.59" height="30.17" style="fill:#e6e6e6"></rect><rect x="357.23" y="322.9" width="7.19" height="29.45" style="fill:#e0e0e0"></rect><rect x="364.42" y="322.9" width="3.6" height="29.45" style="fill:#ebebeb"></rect><rect x="341.8" y="322.9" width="4.79" height="29.45" style="fill:#ebebeb"></rect><rect x="346.6" y="322.9" width="2.4" height="29.45" style="fill:#fafafa"></rect><rect x="365.66" y="100.6" width="63.13" height="20.9" style="fill:#e6e6e6"></rect><rect x="365.72" y="55.2" width="1" height="45.4" style="fill:#e6e6e6"></rect><rect x="427.69" y="55.2" width="1" height="45.4" style="fill:#e6e6e6"></rect><rect x="230.64" y="129.35" width="96.85" height="244" style="fill:#e0e0e0"></rect><path d="M327.49,127.21V375.49h17.84V127.21Z" style="fill:#e6e6e6"></path><path d="M213.65,127.21V375.49H231.5V127.21Z" style="fill:#e6e6e6"></path><path d="M210.62,127.21V375.49h119V127.21Zm114.73,4.28V176H214.9V131.49ZM214.9,273.61V229.09H325.35v44.52Zm110.45,4.28v44.52H214.9V277.89ZM214.9,224.81V180.29H325.35v44.52Zm0,146.4V326.69H325.35v44.52Z" style="fill:#f5f5f5"></path><rect x="286.76" y="141.87" width="4.12" height="34.54" transform="translate(577.64 318.29) rotate(180)" style="fill:#e6e6e6"></rect><rect x="290.88" y="141.87" width="4.12" height="34.54" transform="translate(585.87 318.29) rotate(180)" style="fill:#e0e0e0"></rect><rect x="278.53" y="144.3" width="8.23" height="32.12" transform="translate(565.29 320.71) rotate(180)" style="fill:#e6e6e6"></rect><rect x="269.09" y="141.87" width="5.32" height="34.54" transform="translate(543.51 318.29) rotate(180)" style="fill:#f0f0f0"></rect><rect x="274.41" y="141.87" width="4.12" height="34.54" transform="translate(552.94 318.29) rotate(180)" style="fill:#ebebeb"></rect><rect x="237.87" y="141.87" width="5.32" height="34.54" transform="translate(481.06 318.29) rotate(180)" style="fill:#e6e6e6"></rect><rect x="243.19" y="141.87" width="4.12" height="34.54" transform="translate(490.5 318.29) rotate(180)" style="fill:#ebebeb"></rect><rect x="255.54" y="141.87" width="5.32" height="34.54" transform="translate(516.4 318.29) rotate(180)" style="fill:#e6e6e6"></rect><rect x="260.86" y="141.87" width="4.12" height="34.54" transform="translate(525.84 318.29) rotate(180)" style="fill:#e0e0e0"></rect><rect x="229.64" y="142.69" width="8.23" height="33.73" transform="translate(467.51 319.11) rotate(180)" style="fill:#ebebeb"></rect><rect x="225.52" y="142.69" width="4.12" height="33.73" transform="translate(455.16 319.11) rotate(180)" style="fill:#e0e0e0"></rect><rect x="250.05" y="142.69" width="5.49" height="33.73" transform="translate(505.59 319.11) rotate(180)" style="fill:#e0e0e0"></rect><rect x="247.31" y="142.69" width="2.74" height="33.73" transform="translate(497.36 319.11) rotate(180)" style="fill:#f0f0f0"></rect><rect x="260.86" y="144.3" width="8.23" height="32.12" transform="translate(529.95 320.71) rotate(180)" style="fill:#f5f5f5"></rect><rect x="307.34" y="141.87" width="5.32" height="34.54" transform="translate(620.01 318.29) rotate(180)" style="fill:#ebebeb"></rect><rect x="312.66" y="141.87" width="4.12" height="34.54" transform="translate(629.44 318.29) rotate(180)" style="fill:#e6e6e6"></rect><rect x="299.11" y="142.69" width="8.23" height="33.73" transform="translate(606.45 319.11) rotate(180)" style="fill:#e0e0e0"></rect><rect x="294.99" y="142.69" width="4.12" height="33.73" transform="translate(594.11 319.11) rotate(180)" style="fill:#ebebeb"></rect><rect x="319.52" y="142.69" width="5.49" height="33.73" transform="translate(644.54 319.11) rotate(180)" style="fill:#ebebeb"></rect><rect x="316.78" y="142.69" width="2.74" height="33.73" transform="translate(636.3 319.11) rotate(180)" style="fill:#fafafa"></rect><rect x="259.66" y="190.24" width="4.12" height="34.54" style="fill:#e6e6e6"></rect><rect x="255.54" y="190.24" width="4.12" height="34.54" style="fill:#e0e0e0"></rect><rect x="263.77" y="192.67" width="8.23" height="32.12" style="fill:#e6e6e6"></rect><rect x="276.12" y="190.24" width="5.32" height="34.54" style="fill:#f0f0f0"></rect><rect x="272.01" y="190.24" width="4.12" height="34.54" style="fill:#ebebeb"></rect><rect x="307.34" y="190.24" width="5.32" height="34.54" style="fill:#e6e6e6"></rect><rect x="303.23" y="190.24" width="4.12" height="34.54" style="fill:#ebebeb"></rect><rect x="289.67" y="190.24" width="5.32" height="34.54" style="fill:#e6e6e6"></rect><rect x="285.56" y="190.24" width="4.12" height="34.54" style="fill:#e0e0e0"></rect><rect x="312.66" y="191.06" width="8.23" height="33.73" style="fill:#ebebeb"></rect><rect x="320.9" y="191.06" width="4.12" height="33.73" style="fill:#e0e0e0"></rect><rect x="294.99" y="191.06" width="5.49" height="33.73" style="fill:#e0e0e0"></rect><rect x="300.48" y="191.06" width="2.74" height="33.73" style="fill:#f0f0f0"></rect><rect x="281.44" y="192.67" width="8.23" height="32.12" style="fill:#f5f5f5"></rect><rect x="237.87" y="190.24" width="5.32" height="34.54" style="fill:#ebebeb"></rect><rect x="233.75" y="190.24" width="4.12" height="34.54" style="fill:#e6e6e6"></rect><rect x="243.19" y="191.06" width="8.23" height="33.73" style="fill:#e0e0e0"></rect><rect x="251.42" y="191.06" width="4.12" height="33.73" style="fill:#ebebeb"></rect><rect x="225.52" y="191.06" width="5.49" height="33.73" style="fill:#ebebeb"></rect><rect x="231.01" y="191.06" width="2.74" height="33.73" style="fill:#fafafa"></rect><rect x="259.66" y="239.47" width="4.12" height="34.54" style="fill:#e6e6e6"></rect><rect x="255.54" y="239.47" width="4.12" height="34.54" style="fill:#e0e0e0"></rect><rect x="263.77" y="241.9" width="8.23" height="32.12" style="fill:#e6e6e6"></rect><rect x="276.12" y="239.47" width="5.32" height="34.54" style="fill:#f0f0f0"></rect><rect x="272.01" y="239.47" width="4.12" height="34.54" style="fill:#ebebeb"></rect><rect x="307.34" y="239.47" width="5.32" height="34.54" style="fill:#e6e6e6"></rect><rect x="303.23" y="239.47" width="4.12" height="34.54" style="fill:#ebebeb"></rect><rect x="289.67" y="239.47" width="5.32" height="34.54" style="fill:#e6e6e6"></rect><rect x="285.56" y="239.47" width="4.12" height="34.54" style="fill:#e0e0e0"></rect><rect x="312.66" y="240.29" width="8.23" height="33.73" style="fill:#ebebeb"></rect><rect x="320.9" y="240.29" width="4.12" height="33.73" style="fill:#e0e0e0"></rect><rect x="294.99" y="240.29" width="5.49" height="33.73" style="fill:#e0e0e0"></rect><rect x="300.48" y="240.29" width="2.74" height="33.73" style="fill:#f0f0f0"></rect><rect x="281.44" y="241.9" width="8.23" height="32.12" style="fill:#f5f5f5"></rect><rect x="237.87" y="239.47" width="5.32" height="34.54" style="fill:#ebebeb"></rect><rect x="233.75" y="239.47" width="4.12" height="34.54" style="fill:#e6e6e6"></rect><rect x="243.19" y="240.29" width="8.23" height="33.73" style="fill:#e0e0e0"></rect><rect x="251.42" y="240.29" width="4.12" height="33.73" style="fill:#ebebeb"></rect><rect x="225.52" y="240.29" width="5.49" height="33.73" style="fill:#ebebeb"></rect><rect x="231.01" y="240.29" width="2.74" height="33.73" style="fill:#fafafa"></rect><rect x="286.76" y="288.7" width="4.12" height="34.54" transform="translate(577.64 611.94) rotate(180)" style="fill:#e6e6e6"></rect><rect x="290.88" y="288.7" width="4.12" height="34.54" transform="translate(585.87 611.94) rotate(180)" style="fill:#e0e0e0"></rect><rect x="278.53" y="288.7" width="8.23" height="32.12" transform="translate(565.29 609.52) rotate(180)" style="fill:#e6e6e6"></rect><rect x="269.09" y="288.7" width="5.32" height="34.54" transform="translate(543.51 611.94) rotate(180)" style="fill:#f0f0f0"></rect><rect x="274.41" y="288.7" width="4.12" height="34.54" transform="translate(552.94 611.94) rotate(180)" style="fill:#ebebeb"></rect><rect x="237.87" y="288.7" width="5.32" height="34.54" transform="translate(481.06 611.94) rotate(180)" style="fill:#e6e6e6"></rect><rect x="243.19" y="288.7" width="4.12" height="34.54" transform="translate(490.5 611.94) rotate(180)" style="fill:#ebebeb"></rect><rect x="255.54" y="288.7" width="5.32" height="34.54" transform="translate(516.4 611.94) rotate(180)" style="fill:#e6e6e6"></rect><rect x="260.86" y="288.7" width="4.12" height="34.54" transform="translate(525.84 611.94) rotate(180)" style="fill:#e0e0e0"></rect><rect x="229.64" y="288.7" width="8.23" height="33.73" transform="translate(467.51 611.13) rotate(180)" style="fill:#ebebeb"></rect><rect x="225.52" y="288.7" width="4.12" height="33.73" transform="translate(455.16 611.13) rotate(180)" style="fill:#e0e0e0"></rect><rect x="250.05" y="288.7" width="5.49" height="33.73" transform="translate(505.59 611.13) rotate(180)" style="fill:#e0e0e0"></rect><rect x="247.31" y="288.7" width="2.74" height="33.73" transform="translate(497.36 611.13) rotate(180)" style="fill:#f0f0f0"></rect><rect x="260.86" y="288.7" width="8.23" height="32.12" transform="translate(529.95 609.52) rotate(180)" style="fill:#f5f5f5"></rect><rect x="307.34" y="288.7" width="5.32" height="34.54" transform="translate(620.01 611.94) rotate(180)" style="fill:#ebebeb"></rect><rect x="312.66" y="288.7" width="4.12" height="34.54" transform="translate(629.44 611.94) rotate(180)" style="fill:#e6e6e6"></rect><rect x="299.11" y="288.7" width="8.23" height="33.73" transform="translate(606.45 611.13) rotate(180)" style="fill:#e0e0e0"></rect><rect x="294.99" y="288.7" width="4.12" height="33.73" transform="translate(594.11 611.13) rotate(180)" style="fill:#ebebeb"></rect><rect x="319.52" y="288.7" width="5.49" height="33.73" transform="translate(644.54 611.13) rotate(180)" style="fill:#ebebeb"></rect><rect x="316.78" y="288.7" width="2.74" height="33.73" transform="translate(636.3 611.13) rotate(180)" style="fill:#fafafa"></rect><rect x="259.66" y="337.93" width="4.12" height="34.54" style="fill:#e6e6e6"></rect><rect x="255.54" y="337.93" width="4.12" height="34.54" style="fill:#e0e0e0"></rect><rect x="263.77" y="337.93" width="8.23" height="32.12" style="fill:#e6e6e6"></rect><rect x="276.12" y="337.93" width="5.32" height="34.54" style="fill:#f0f0f0"></rect><rect x="272.01" y="337.93" width="4.12" height="34.54" style="fill:#ebebeb"></rect><rect x="307.34" y="337.93" width="5.32" height="34.54" style="fill:#e6e6e6"></rect><rect x="303.23" y="337.93" width="4.12" height="34.54" style="fill:#ebebeb"></rect><rect x="289.67" y="337.93" width="5.32" height="34.54" style="fill:#e6e6e6"></rect><rect x="285.56" y="337.93" width="4.12" height="34.54" style="fill:#e0e0e0"></rect><rect x="312.66" y="337.93" width="8.23" height="33.73" style="fill:#ebebeb"></rect><rect x="320.9" y="337.93" width="4.12" height="33.73" style="fill:#e0e0e0"></rect><rect x="294.99" y="337.93" width="5.49" height="33.73" style="fill:#e0e0e0"></rect><rect x="300.48" y="337.93" width="2.74" height="33.73" style="fill:#f0f0f0"></rect><rect x="281.44" y="337.93" width="8.23" height="32.12" style="fill:#f5f5f5"></rect><rect x="237.87" y="337.93" width="5.32" height="34.54" style="fill:#ebebeb"></rect><rect x="233.75" y="337.93" width="4.12" height="34.54" style="fill:#e6e6e6"></rect><rect x="243.19" y="337.93" width="8.23" height="33.73" style="fill:#e0e0e0"></rect><rect x="251.42" y="337.93" width="4.12" height="33.73" style="fill:#ebebeb"></rect><rect x="225.52" y="337.93" width="5.49" height="33.73" style="fill:#ebebeb"></rect><rect x="231.01" y="337.93" width="2.74" height="33.73" style="fill:#fafafa"></rect><rect x="237.79" y="83.39" width="72.29" height="23.93" style="fill:#e6e6e6"></rect><rect x="237.93" y="55.2" width="1" height="28.18" style="fill:#e6e6e6"></rect><rect x="308.96" y="54.95" width="1" height="28.43" style="fill:#e6e6e6"></rect></g><g id="freepik--Shadow--inject-452"><ellipse id="freepik--path--inject-452" cx="245.18" cy="412.39" rx="193.89" ry="11.32" style="fill:#f5f5f5"></ellipse></g><g id="freepik--Bookshelf--inject-452"><rect x="107.59" y="103.81" width="122.03" height="307.45" style="fill:#407BFF"></rect><rect x="107.59" y="103.81" width="122.03" height="307.45" style="fill:#fff;opacity:0.2"></rect><path d="M229.62,101.12V414H252.1V101.12Z" style="fill:#407BFF"></path><path d="M229.62,101.12V414H252.1V101.12Z" style="fill:#fff;opacity:0.30000000000000004"></path><path d="M86.19,101.12V414h22.48V101.12Z" style="fill:#407BFF"></path><path d="M86.19,101.12V414h22.48V101.12Z" style="fill:#fff;opacity:0.4"></path><path d="M82.37,101.12V414h150V101.12Zm144.55,5.39v56.1H87.76v-56.1ZM87.76,285.58V229.49H226.92v56.09ZM226.92,291v56.09H87.76V291ZM87.76,224.1V168H226.92v56.1Zm0,184.46V352.47H226.92v56.09Z" style="fill:#407BFF"></path><path d="M82.37,101.12V414h150V101.12Zm144.55,5.39v56.1H87.76v-56.1ZM87.76,285.58V229.49H226.92v56.09ZM226.92,291v56.09H87.76V291ZM87.76,224.1V168H226.92v56.1Zm0,184.46V352.47H226.92v56.09Z" style="fill:#fff;opacity:0.6000000000000001"></path><rect x="175.81" y="119.08" width="5.19" height="43.53" transform="translate(356.8 281.69) rotate(180)" style="fill:#407BFF"></rect><rect x="175.81" y="119.08" width="5.19" height="43.53" transform="translate(356.8 281.69) rotate(180)" style="fill:#fff;opacity:0.1"></rect><rect x="180.99" y="119.08" width="5.19" height="43.53" transform="translate(367.17 281.69) rotate(180)" style="fill:#407BFF"></rect><rect x="180.99" y="119.08" width="5.19" height="43.53" transform="translate(367.17 281.69) rotate(180)" style="fill:#fff;opacity:0.4"></rect><rect x="165.43" y="122.14" width="10.37" height="40.47" transform="translate(341.24 284.74) rotate(180)" style="fill:#407BFF"></rect><rect x="165.43" y="122.14" width="10.37" height="40.47" transform="translate(341.24 284.74) rotate(180)" style="fill:#fff;opacity:0.6000000000000001"></rect><rect x="153.54" y="119.08" width="6.7" height="43.53" transform="translate(313.79 281.69) rotate(180)" style="fill:#407BFF"></rect><rect x="160.25" y="119.08" width="5.19" height="43.53" transform="translate(325.68 281.69) rotate(180)" style="fill:#407BFF"></rect><rect x="160.25" y="119.08" width="5.19" height="43.53" transform="translate(325.68 281.69) rotate(180)" style="fill:#fff;opacity:0.7000000000000001"></rect><rect x="114.2" y="119.08" width="6.7" height="43.53" transform="translate(235.11 281.69) rotate(180)" style="fill:#407BFF"></rect><rect x="114.2" y="119.08" width="6.7" height="43.53" transform="translate(235.11 281.69) rotate(180)" style="fill:#fff;opacity:0.7000000000000001"></rect><rect x="120.91" y="119.08" width="5.19" height="43.53" transform="translate(247 281.69) rotate(180)" style="fill:#407BFF"></rect><rect x="120.91" y="119.08" width="5.19" height="43.53" transform="translate(247 281.69) rotate(180)" style="fill:#fff;opacity:0.6000000000000001"></rect><rect x="136.47" y="119.08" width="6.7" height="43.53" transform="translate(279.64 281.69) rotate(180)" style="fill:#407BFF"></rect><rect x="136.47" y="119.08" width="6.7" height="43.53" transform="translate(279.64 281.69) rotate(180)" style="fill:#fff;opacity:0.6000000000000001"></rect><rect x="143.17" y="119.08" width="5.19" height="43.53" transform="translate(291.53 281.69) rotate(180)" style="fill:#407BFF"></rect><rect x="143.17" y="119.08" width="5.19" height="43.53" transform="translate(291.53 281.69) rotate(180)" style="opacity:0.1"></rect><rect x="103.83" y="120.11" width="10.37" height="42.5" transform="translate(218.03 282.72) rotate(180)" style="fill:#407BFF"></rect><rect x="103.83" y="120.11" width="10.37" height="42.5" transform="translate(218.03 282.72) rotate(180)" style="fill:#fff;opacity:0.1"></rect><rect x="98.64" y="120.11" width="5.19" height="42.5" transform="translate(202.47 282.72) rotate(180)" style="fill:#407BFF"></rect><rect x="98.64" y="120.11" width="5.19" height="42.5" transform="translate(202.47 282.72) rotate(180)" style="fill:#fff;opacity:0.6000000000000001"></rect><rect x="129.55" y="120.11" width="6.92" height="42.5" transform="translate(266.02 282.72) rotate(180)" style="fill:#407BFF"></rect><rect x="129.55" y="120.11" width="6.92" height="42.5" transform="translate(266.02 282.72) rotate(180)" style="fill:#fff;opacity:0.1"></rect><rect x="126.09" y="120.11" width="3.46" height="42.5" transform="translate(255.64 282.72) rotate(180)" style="fill:#407BFF"></rect><rect x="126.09" y="120.11" width="3.46" height="42.5" transform="translate(255.64 282.72) rotate(180)" style="fill:#fff;opacity:0.30000000000000004"></rect><rect x="143.17" y="122.14" width="10.37" height="40.47" transform="translate(296.71 284.74) rotate(180)" style="fill:#407BFF"></rect><rect x="143.17" y="122.14" width="10.37" height="40.47" transform="translate(296.71 284.74) rotate(180)" style="fill:#fff;opacity:0.1"></rect><rect x="201.74" y="119.08" width="6.7" height="43.53" transform="translate(410.18 281.69) rotate(180)" style="fill:#407BFF"></rect><rect x="201.74" y="119.08" width="6.7" height="43.53" transform="translate(410.18 281.69) rotate(180)" style="fill:#fff;opacity:0.30000000000000004"></rect><rect x="208.44" y="119.08" width="5.19" height="43.53" transform="translate(422.07 281.69) rotate(180)" style="fill:#407BFF"></rect><rect x="208.44" y="119.08" width="5.19" height="43.53" transform="translate(422.07 281.69) rotate(180)" style="fill:#fff;opacity:0.2"></rect><rect x="191.37" y="120.11" width="10.37" height="42.5" transform="translate(393.11 282.72) rotate(180)" style="fill:#407BFF"></rect><rect x="191.37" y="120.11" width="10.37" height="42.5" transform="translate(393.11 282.72) rotate(180)" style="fill:#fff;opacity:0.1"></rect><rect x="186.18" y="120.11" width="5.19" height="42.5" transform="translate(377.55 282.72) rotate(180)" style="fill:#407BFF"></rect><rect x="186.18" y="120.11" width="5.19" height="42.5" transform="translate(377.55 282.72) rotate(180)" style="fill:#fff;opacity:0.6000000000000001"></rect><rect x="217.09" y="120.11" width="6.92" height="42.5" transform="translate(441.09 282.72) rotate(180)" style="fill:#407BFF"></rect><rect x="217.09" y="120.11" width="6.92" height="42.5" transform="translate(441.09 282.72) rotate(180)" style="fill:#fff;opacity:0.1"></rect><rect x="213.63" y="120.11" width="3.46" height="42.5" transform="translate(430.72 282.72) rotate(180)" style="fill:#407BFF"></rect><rect x="213.63" y="120.11" width="3.46" height="42.5" transform="translate(430.72 282.72) rotate(180)" style="fill:#fff;opacity:0.6000000000000001"></rect><rect x="143.56" y="180.71" width="5.06" height="43.4" style="fill:#407BFF"></rect><rect x="143.56" y="180.71" width="5.06" height="43.4" style="fill:#fff;opacity:0.1"></rect><rect x="138.49" y="180.71" width="5.06" height="43.4" style="fill:#407BFF"></rect><rect x="138.49" y="180.71" width="5.06" height="43.4" style="fill:#fff;opacity:0.4"></rect><rect x="148.62" y="183.76" width="10.13" height="40.35" style="fill:#407BFF"></rect><rect x="148.62" y="183.76" width="10.13" height="40.35" style="fill:#fff;opacity:0.6000000000000001"></rect><rect x="163.81" y="180.71" width="6.54" height="43.4" style="fill:#407BFF"></rect><rect x="158.75" y="180.71" width="5.06" height="43.4" style="fill:#407BFF"></rect><rect x="158.75" y="180.71" width="5.06" height="43.4" style="opacity:0.1"></rect><rect x="202.22" y="180.71" width="6.54" height="43.4" style="fill:#407BFF"></rect><rect x="202.22" y="180.71" width="6.54" height="43.4" style="opacity:0.1"></rect><rect x="197.16" y="180.71" width="5.06" height="43.4" style="fill:#407BFF"></rect><rect x="197.16" y="180.71" width="5.06" height="43.4" style="fill:#fff;opacity:0.6000000000000001"></rect><rect x="180.48" y="180.71" width="6.54" height="43.4" style="fill:#407BFF"></rect><rect x="180.48" y="180.71" width="6.54" height="43.4" style="fill:#fff;opacity:0.6000000000000001"></rect><rect x="175.42" y="180.71" width="5.06" height="43.4" style="fill:#407BFF"></rect><rect x="175.42" y="180.71" width="5.06" height="43.4" style="opacity:0.1"></rect><rect x="208.76" y="181.74" width="10.13" height="42.37" style="fill:#407BFF"></rect><rect x="208.76" y="181.74" width="10.13" height="42.37" style="fill:#fff;opacity:0.1"></rect><rect x="218.89" y="181.74" width="5.06" height="42.37" style="fill:#407BFF"></rect><rect x="218.89" y="181.74" width="5.06" height="42.37" style="fill:#fff;opacity:0.6000000000000001"></rect><rect x="187.03" y="181.74" width="6.75" height="42.37" style="fill:#407BFF"></rect><rect x="187.03" y="181.74" width="6.75" height="42.37" style="fill:#fff;opacity:0.1"></rect><rect x="193.78" y="181.74" width="3.38" height="42.37" style="fill:#407BFF"></rect><rect x="193.78" y="181.74" width="3.38" height="42.37" style="fill:#fff;opacity:0.30000000000000004"></rect><rect x="170.36" y="183.76" width="10.13" height="40.35" style="fill:#407BFF"></rect><rect x="170.36" y="183.76" width="10.13" height="40.35" style="fill:#fff;opacity:0.1"></rect><rect x="116.76" y="180.71" width="6.54" height="43.4" style="fill:#407BFF"></rect><rect x="116.76" y="180.71" width="6.54" height="43.4" style="fill:#fff;opacity:0.1"></rect><rect x="111.69" y="180.71" width="5.06" height="43.4" style="fill:#407BFF"></rect><rect x="111.69" y="180.71" width="5.06" height="43.4" style="fill:#fff;opacity:0.2"></rect><rect x="123.3" y="181.74" width="10.13" height="42.37" style="fill:#407BFF"></rect><rect x="123.3" y="181.74" width="10.13" height="42.37" style="fill:#fff;opacity:0.1"></rect><rect x="133.43" y="181.74" width="5.06" height="42.37" style="fill:#407BFF"></rect><rect x="133.43" y="181.74" width="5.06" height="42.37" style="fill:#fff;opacity:0.6000000000000001"></rect><rect x="101.57" y="181.74" width="6.75" height="42.37" style="fill:#407BFF"></rect><rect x="101.57" y="181.74" width="6.75" height="42.37" style="fill:#fff;opacity:0.1"></rect><rect x="108.32" y="181.74" width="3.38" height="42.37" style="fill:#407BFF"></rect><rect x="108.32" y="181.74" width="3.38" height="42.37" style="fill:#fff;opacity:0.6000000000000001"></rect><rect x="176.87" y="304.1" width="5.06" height="42.97" transform="translate(358.8 651.18) rotate(180)" style="fill:#407BFF"></rect><rect x="176.87" y="304.1" width="5.06" height="42.97" transform="translate(358.8 651.18) rotate(180)" style="fill:#fff;opacity:0.1"></rect><rect x="181.93" y="304.1" width="5.06" height="42.97" transform="translate(368.93 651.18) rotate(180)" style="fill:#407BFF"></rect><rect x="181.93" y="304.1" width="5.06" height="42.97" transform="translate(368.93 651.18) rotate(180)" style="fill:#fff;opacity:0.4"></rect><rect x="166.74" y="307.12" width="10.13" height="39.95" transform="translate(343.61 654.2) rotate(180)" style="fill:#407BFF"></rect><rect x="166.74" y="307.12" width="10.13" height="39.95" transform="translate(343.61 654.2) rotate(180)" style="fill:#fff;opacity:0.6000000000000001"></rect><rect x="155.13" y="304.1" width="6.54" height="42.97" transform="translate(316.81 651.18) rotate(180)" style="fill:#407BFF"></rect><rect x="161.68" y="304.1" width="5.06" height="42.97" transform="translate(328.42 651.18) rotate(180)" style="fill:#407BFF"></rect><rect x="161.68" y="304.1" width="5.06" height="42.97" transform="translate(328.42 651.18) rotate(180)" style="fill:#fff;opacity:0.6000000000000001"></rect><rect x="116.72" y="304.1" width="6.54" height="42.97" transform="translate(239.99 651.18) rotate(180)" style="fill:#407BFF"></rect><rect x="116.72" y="304.1" width="6.54" height="42.97" transform="translate(239.99 651.18) rotate(180)" style="fill:#fff;opacity:0.30000000000000004"></rect><rect x="123.27" y="304.1" width="5.06" height="42.97" transform="translate(251.6 651.18) rotate(180)" style="fill:#407BFF"></rect><rect x="123.27" y="304.1" width="5.06" height="42.97" transform="translate(251.6 651.18) rotate(180)" style="fill:#fff;opacity:0.6000000000000001"></rect><rect x="138.46" y="304.1" width="6.54" height="42.97" transform="translate(283.46 651.18) rotate(180)" style="fill:#407BFF"></rect><rect x="138.46" y="304.1" width="6.54" height="42.97" transform="translate(283.46 651.18) rotate(180)" style="fill:#fff;opacity:0.6000000000000001"></rect><rect x="145" y="304.1" width="5.06" height="42.97" transform="translate(295.07 651.18) rotate(180)" style="fill:#407BFF"></rect><rect x="145" y="304.1" width="5.06" height="42.97" transform="translate(295.07 651.18) rotate(180)" style="opacity:0.1"></rect><rect x="106.6" y="305.12" width="10.13" height="41.96" transform="translate(223.32 652.2) rotate(180)" style="fill:#407BFF"></rect><rect x="106.6" y="305.12" width="10.13" height="41.96" transform="translate(223.32 652.2) rotate(180)" style="fill:#fff;opacity:0.1"></rect><rect x="101.53" y="305.12" width="5.06" height="41.96" transform="translate(208.13 652.2) rotate(180)" style="fill:#407BFF"></rect><rect x="101.53" y="305.12" width="5.06" height="41.96" transform="translate(208.13 652.2) rotate(180)" style="fill:#fff;opacity:0.6000000000000001"></rect><rect x="131.71" y="305.12" width="6.75" height="41.96" transform="translate(270.17 652.2) rotate(180)" style="fill:#407BFF"></rect><rect x="131.71" y="305.12" width="6.75" height="41.96" transform="translate(270.17 652.2) rotate(180)" style="fill:#fff;opacity:0.1"></rect><rect x="128.33" y="305.12" width="3.38" height="41.96" transform="translate(260.04 652.2) rotate(180)" style="fill:#407BFF"></rect><rect x="128.33" y="305.12" width="3.38" height="41.96" transform="translate(260.04 652.2) rotate(180)" style="fill:#fff;opacity:0.30000000000000004"></rect><rect x="145" y="307.12" width="10.13" height="39.95" transform="translate(300.14 654.2) rotate(180)" style="fill:#407BFF"></rect><rect x="145" y="307.12" width="10.13" height="39.95" transform="translate(300.14 654.2) rotate(180)" style="fill:#fff;opacity:0.1"></rect><rect x="202.19" y="304.1" width="6.54" height="42.97" transform="translate(410.92 651.18) rotate(180)" style="fill:#407BFF"></rect><rect x="202.19" y="304.1" width="6.54" height="42.97" transform="translate(410.92 651.18) rotate(180)" style="opacity:0.1"></rect><rect x="208.73" y="304.1" width="5.06" height="42.97" transform="translate(422.53 651.18) rotate(180)" style="fill:#407BFF"></rect><rect x="208.73" y="304.1" width="5.06" height="42.97" transform="translate(422.53 651.18) rotate(180)" style="fill:#fff;opacity:0.2"></rect><rect x="192.06" y="305.12" width="10.13" height="41.96" transform="translate(394.25 652.2) rotate(180)" style="fill:#407BFF"></rect><rect x="192.06" y="305.12" width="10.13" height="41.96" transform="translate(394.25 652.2) rotate(180)" style="fill:#fff;opacity:0.1"></rect><rect x="187" y="305.12" width="5.06" height="41.96" transform="translate(379.05 652.2) rotate(180)" style="fill:#407BFF"></rect><rect x="187" y="305.12" width="5.06" height="41.96" transform="translate(379.05 652.2) rotate(180)" style="fill:#fff;opacity:0.6000000000000001"></rect><rect x="217.17" y="305.12" width="6.75" height="41.96" transform="translate(441.09 652.2) rotate(180)" style="fill:#407BFF"></rect><rect x="217.17" y="305.12" width="6.75" height="41.96" transform="translate(441.09 652.2) rotate(180)" style="fill:#fff;opacity:0.1"></rect><rect x="213.8" y="305.12" width="3.38" height="41.96" transform="translate(430.97 652.2) rotate(180)" style="fill:#407BFF"></rect><rect x="213.8" y="305.12" width="3.38" height="41.96" transform="translate(430.97 652.2) rotate(180)" style="fill:#fff;opacity:0.6000000000000001"></rect><rect x="176.9" y="366.15" width="5.06" height="42.44" transform="translate(358.87 774.73) rotate(180)" style="fill:#407BFF"></rect><rect x="176.9" y="366.15" width="5.06" height="42.44" transform="translate(358.87 774.73) rotate(180)" style="fill:#fff;opacity:0.1"></rect><rect x="181.97" y="366.15" width="5.06" height="42.44" transform="translate(368.99 774.73) rotate(180)" style="fill:#407BFF"></rect><rect x="181.97" y="366.15" width="5.06" height="42.44" transform="translate(368.99 774.73) rotate(180)" style="fill:#fff;opacity:0.4"></rect><rect x="166.77" y="369.13" width="10.13" height="39.45" transform="translate(343.68 777.71) rotate(180)" style="fill:#407BFF"></rect><rect x="166.77" y="369.13" width="10.13" height="39.45" transform="translate(343.68 777.71) rotate(180)" style="fill:#fff;opacity:0.6000000000000001"></rect><rect x="155.17" y="366.15" width="6.54" height="42.44" transform="translate(316.88 774.73) rotate(180)" style="fill:#407BFF"></rect><rect x="161.71" y="366.15" width="5.06" height="42.44" transform="translate(328.48 774.73) rotate(180)" style="fill:#407BFF"></rect><rect x="161.71" y="366.15" width="5.06" height="42.44" transform="translate(328.48 774.73) rotate(180)" style="opacity:0.1"></rect><rect x="116.76" y="366.15" width="6.54" height="42.44" transform="translate(240.06 774.73) rotate(180)" style="fill:#407BFF"></rect><rect x="116.76" y="366.15" width="6.54" height="42.44" transform="translate(240.06 774.73) rotate(180)" style="fill:#fff;opacity:0.4"></rect><rect x="123.3" y="366.15" width="5.06" height="42.44" transform="translate(251.67 774.73) rotate(180)" style="fill:#407BFF"></rect><rect x="123.3" y="366.15" width="5.06" height="42.44" transform="translate(251.67 774.73) rotate(180)" style="fill:#fff;opacity:0.6000000000000001"></rect><rect x="138.49" y="366.15" width="6.54" height="42.44" transform="translate(283.53 774.73) rotate(180)" style="fill:#407BFF"></rect><rect x="138.49" y="366.15" width="6.54" height="42.44" transform="translate(283.53 774.73) rotate(180)" style="fill:#fff;opacity:0.6000000000000001"></rect><rect x="145.04" y="366.15" width="5.06" height="42.44" transform="translate(295.14 774.73) rotate(180)" style="fill:#407BFF"></rect><rect x="145.04" y="366.15" width="5.06" height="42.44" transform="translate(295.14 774.73) rotate(180)" style="opacity:0.1"></rect><rect x="106.63" y="367.15" width="10.13" height="41.43" transform="translate(223.39 775.74) rotate(180)" style="fill:#407BFF"></rect><rect x="106.63" y="367.15" width="10.13" height="41.43" transform="translate(223.39 775.74) rotate(180)" style="fill:#fff;opacity:0.1"></rect><rect x="101.57" y="367.15" width="5.06" height="41.43" transform="translate(208.2 775.74) rotate(180)" style="fill:#407BFF"></rect><rect x="101.57" y="367.15" width="5.06" height="41.43" transform="translate(208.2 775.74) rotate(180)" style="fill:#fff;opacity:0.6000000000000001"></rect><rect x="131.74" y="367.15" width="6.75" height="41.43" transform="translate(270.24 775.74) rotate(180)" style="fill:#407BFF"></rect><rect x="131.74" y="367.15" width="6.75" height="41.43" transform="translate(270.24 775.74) rotate(180)" style="fill:#fff;opacity:0.1"></rect><rect x="128.37" y="367.15" width="3.38" height="41.43" transform="translate(260.11 775.74) rotate(180)" style="fill:#407BFF"></rect><rect x="128.37" y="367.15" width="3.38" height="41.43" transform="translate(260.11 775.74) rotate(180)" style="fill:#fff;opacity:0.30000000000000004"></rect><rect x="145.04" y="369.13" width="10.13" height="39.45" transform="translate(300.2 777.71) rotate(180)" style="fill:#407BFF"></rect><rect x="145.04" y="369.13" width="10.13" height="39.45" transform="translate(300.2 777.71) rotate(180)" style="fill:#fff;opacity:0.1"></rect><rect x="202.22" y="366.15" width="6.54" height="42.44" transform="translate(410.99 774.73) rotate(180)" style="fill:#407BFF"></rect><rect x="202.22" y="366.15" width="6.54" height="42.44" transform="translate(410.99 774.73) rotate(180)" style="opacity:0.1"></rect><rect x="208.77" y="366.15" width="5.06" height="42.44" transform="translate(422.59 774.73) rotate(180)" style="fill:#407BFF"></rect><rect x="208.77" y="366.15" width="5.06" height="42.44" transform="translate(422.59 774.73) rotate(180)" style="fill:#fff;opacity:0.2"></rect><rect x="192.09" y="367.15" width="10.13" height="41.43" transform="translate(394.31 775.74) rotate(180)" style="fill:#407BFF"></rect><rect x="192.09" y="367.15" width="10.13" height="41.43" transform="translate(394.31 775.74) rotate(180)" style="fill:#fff;opacity:0.1"></rect><rect x="187.03" y="367.15" width="5.06" height="41.43" transform="translate(379.12 775.74) rotate(180)" style="fill:#407BFF"></rect><rect x="187.03" y="367.15" width="5.06" height="41.43" transform="translate(379.12 775.74) rotate(180)" style="fill:#fff;opacity:0.6000000000000001"></rect><rect x="217.2" y="367.15" width="6.75" height="41.43" transform="translate(441.16 775.74) rotate(180)" style="fill:#407BFF"></rect><rect x="217.2" y="367.15" width="6.75" height="41.43" transform="translate(441.16 775.74) rotate(180)" style="fill:#fff;opacity:0.1"></rect><rect x="213.83" y="367.15" width="3.38" height="41.43" transform="translate(431.03 775.74) rotate(180)" style="fill:#407BFF"></rect><rect x="213.83" y="367.15" width="3.38" height="41.43" transform="translate(431.03 775.74) rotate(180)" style="fill:#fff;opacity:0.6000000000000001"></rect><rect x="140.84" y="241.47" width="5.23" height="44.11" style="fill:#407BFF"></rect><rect x="140.84" y="241.47" width="5.23" height="44.11" style="fill:#fff;opacity:0.1"></rect><rect x="135.6" y="241.47" width="5.23" height="44.11" style="fill:#407BFF"></rect><rect x="135.6" y="241.47" width="5.23" height="44.11" style="fill:#fff;opacity:0.4"></rect><rect x="146.07" y="244.57" width="10.47" height="41.01" style="fill:#407BFF"></rect><rect x="146.07" y="244.57" width="10.47" height="41.01" style="fill:#fff;opacity:0.6000000000000001"></rect><rect x="161.78" y="241.47" width="6.77" height="44.11" style="fill:#407BFF"></rect><rect x="156.54" y="241.47" width="5.23" height="44.11" style="fill:#407BFF"></rect><rect x="156.54" y="241.47" width="5.23" height="44.11" style="opacity:0.1"></rect><rect x="201.49" y="241.47" width="6.77" height="44.11" style="fill:#407BFF"></rect><rect x="201.49" y="241.47" width="6.77" height="44.11" style="opacity:0.1"></rect><rect x="196.25" y="241.47" width="5.23" height="44.11" style="fill:#407BFF"></rect><rect x="196.25" y="241.47" width="5.23" height="44.11" style="fill:#fff;opacity:0.6000000000000001"></rect><rect x="179.01" y="241.47" width="6.77" height="44.11" style="fill:#407BFF"></rect><rect x="179.01" y="241.47" width="6.77" height="44.11" style="fill:#fff;opacity:0.6000000000000001"></rect><rect x="173.78" y="241.47" width="5.23" height="44.11" style="fill:#407BFF"></rect><rect x="173.78" y="241.47" width="5.23" height="44.11" style="opacity:0.1"></rect><rect x="208.25" y="242.52" width="10.47" height="43.07" style="fill:#407BFF"></rect><rect x="208.25" y="242.52" width="10.47" height="43.07" style="fill:#fff;opacity:0.1"></rect><rect x="218.72" y="242.52" width="5.23" height="43.07" style="fill:#407BFF"></rect><rect x="218.72" y="242.52" width="5.23" height="43.07" style="fill:#fff;opacity:0.6000000000000001"></rect><rect x="185.78" y="242.52" width="6.98" height="43.07" style="fill:#407BFF"></rect><rect x="185.78" y="242.52" width="6.98" height="43.07" style="fill:#fff;opacity:0.1"></rect><rect x="192.76" y="242.52" width="3.49" height="43.07" style="fill:#407BFF"></rect><rect x="192.76" y="242.52" width="3.49" height="43.07" style="fill:#fff;opacity:0.30000000000000004"></rect><rect x="168.54" y="244.57" width="10.47" height="41.01" style="fill:#407BFF"></rect><rect x="168.54" y="244.57" width="10.47" height="41.01" style="fill:#fff;opacity:0.1"></rect><rect x="113.13" y="241.47" width="6.77" height="44.11" style="fill:#407BFF"></rect><rect x="113.13" y="241.47" width="6.77" height="44.11" style="fill:#fff;opacity:0.2"></rect><rect x="107.9" y="241.47" width="5.23" height="44.11" style="fill:#407BFF"></rect><rect x="107.9" y="241.47" width="5.23" height="44.11" style="fill:#fff;opacity:0.2"></rect><rect x="119.9" y="242.52" width="10.47" height="43.07" style="fill:#407BFF"></rect><rect x="119.9" y="242.52" width="10.47" height="43.07" style="fill:#fff;opacity:0.1"></rect><rect x="130.37" y="242.52" width="5.23" height="43.07" style="fill:#407BFF"></rect><rect x="130.37" y="242.52" width="5.23" height="43.07" style="fill:#fff;opacity:0.6000000000000001"></rect><rect x="97.43" y="242.52" width="6.98" height="43.07" style="fill:#407BFF"></rect><rect x="97.43" y="242.52" width="6.98" height="43.07" style="fill:#fff;opacity:0.1"></rect><rect x="104.41" y="242.52" width="3.49" height="43.07" style="fill:#407BFF"></rect><rect x="104.41" y="242.52" width="3.49" height="43.07" style="fill:#fff;opacity:0.6000000000000001"></rect></g><g id="freepik--Sign--inject-452"><rect x="111.29" y="68.7" width="80.94" height="26.79" style="fill:#407BFF"></rect><rect x="112.79" y="54.95" width="1" height="13.75" style="fill:#407BFF"></rect><rect x="190.85" y="54.95" width="1" height="13.75" style="fill:#407BFF"></rect><g style="opacity:0.7000000000000001"><rect x="111.29" y="68.7" width="79.33" height="25.03" style="fill:#fff"></rect></g><rect x="124.98" y="73.53" width="56.34" height="4.87" style="fill:#407BFF"></rect><rect x="169.25" y="82.1" width="12.08" height="1.9" style="fill:#407BFF"></rect><rect x="157.09" y="87.69" width="24.24" height="1.9" style="fill:#407BFF"></rect></g></svg>