<svg xmlns="http://www.w3.org/2000/svg" xmlns:xlink="http://www.w3.org/1999/xlink" viewBox="0 0 500 500"><defs><clipPath id="freepik--clip-path--inject-4"><path d="M242.78,381.63l92.15-.29s-.42-4.2,3.38-31.15c4.09-29,7.71-80.35,7.71-80.35L324.55,266c-8.27,19.06-35.5,45.76-52.21,37s-27.26-32.82-27.26-32.82-6.2.68-16.83,5.06-12.69,29.15-12.69,29.15l19.78,13-.18,2.77c-1.93,16,2.62,24.4,3.17,25.58Z" style="fill:#199E9E;stroke:#263238;stroke-linecap:round;stroke-linejoin:round"></path></clipPath><clipPath id="freepik--clip-path-2--inject-4"><polygon points="189.65 352.91 189.6 352.82 160.05 352.82 171.19 372.47 171.24 372.56 200.79 372.56 189.65 352.91" style="fill:#199E9E;stroke:#263238;stroke-miterlimit:10"></polygon></clipPath><clipPath id="freepik--clip-path-3--inject-4"><polygon points="252.75 352.82 241.61 372.47 241.56 372.56 212.01 372.56 223.15 352.91 223.2 352.82 252.75 352.82" style="fill:#199E9E;stroke:#263238;stroke-miterlimit:10"></polygon></clipPath><clipPath id="freepik--clip-path-4--inject-4"><rect x="212.01" y="372.56" width="29.58" height="42.93" style="fill:#199E9E;stroke:#263238;stroke-miterlimit:10"></rect></clipPath></defs><g id="freepik--background-simple--inject-4"><path d="M441.68,381.2H82.47c-19.08-27.38-81.21-111.84,48.4-189.35C276.4,104.81,259.6,34.48,377.41,51.58S466,334.61,441.68,381.2Z" style="fill:#199E9E"></path><g style="opacity:0.7000000000000001"><path d="M441.68,381.2H82.47c-19.08-27.38-81.21-111.84,48.4-189.35C276.4,104.81,259.6,34.48,377.41,51.58S466,334.61,441.68,381.2Z" style="fill:#fff"></path></g></g><g id="freepik--Desk--inject-4"><path d="M418.34,403.45q3.87-3,7.5-6.26c2.48-2.17,4.87-4.41,7.17-6.69q4.58-4.53,8.67-9.3H82.47q3.36,3.93,7.07,7.68c37.93,38.66,101.06,63.95,172.54,63.95,59.95,0,114-17.8,152.3-46.35l1.25-.93,2.71-2.1" style="fill:#bfbfbf"></path><polyline points="65.89 381.2 441.68 381.2 457.99 381.2" style="fill:none;stroke:#263238;stroke-linecap:round;stroke-linejoin:round"></polyline><line x1="333.01" y1="422.83" x2="337.7" y2="422.83" style="fill:none;stroke:#263238;stroke-linecap:round;stroke-linejoin:round"></line><line x1="326.34" y1="422.83" x2="330.75" y2="422.83" style="fill:none;stroke:#263238;stroke-linecap:round;stroke-linejoin:round"></line><line x1="284.76" y1="422.83" x2="321.66" y2="422.83" style="fill:none;stroke:#263238;stroke-linecap:round;stroke-linejoin:round"></line><line x1="398.99" y1="400.32" x2="403.4" y2="400.32" style="fill:none;stroke:#263238;stroke-linecap:round;stroke-linejoin:round"></line><line x1="357.41" y1="400.32" x2="394.31" y2="400.32" style="fill:none;stroke:#263238;stroke-linecap:round;stroke-linejoin:round"></line><line x1="152.28" y1="407.72" x2="156.69" y2="407.72" style="fill:none;stroke:#263238;stroke-linecap:round;stroke-linejoin:round"></line><line x1="110.7" y1="407.72" x2="147.6" y2="407.72" style="fill:none;stroke:#263238;stroke-linecap:round;stroke-linejoin:round"></line></g><g id="freepik--Frame--inject-4"><rect x="307.84" y="28.32" width="90.48" height="134.83" transform="translate(257.35 448.81) rotate(-90)" style="fill:none;stroke:#999;stroke-linecap:round;stroke-linejoin:round"></rect><rect x="314.91" y="35.47" width="76.35" height="119.39" transform="translate(257.91 448.25) rotate(-90)" style="fill:none;stroke:#999;stroke-linecap:round;stroke-linejoin:round"></rect><rect x="324.44" y="75.36" width="59.51" height="36.35" rx="15.06" style="fill:none;stroke:#999;stroke-linecap:round;stroke-linejoin:round"></rect><polyline points="345 83.59 363.49 93.83 345 104.07 345 83.59" style="fill:none;stroke:#999;stroke-linecap:round;stroke-linejoin:round"></polyline></g><g id="freepik--Plant--inject-4"><path d="M96.81,180.85a0,0,0,0,1,0,.05,1.33,1.33,0,0,0,0,.19c-.06.32-.13.65-.21,1a112.56,112.56,0,0,0-1.77,11.65c-.33,3.36-.59,7.18-.66,11.45a172.84,172.84,0,0,0,2,29.39q.57,3.87,1.38,8c.86,4.46,1.93,9.13,3.22,14q.89,3.36,1.94,6.86c.29.94.56,1.88.83,2.82.32,1.14.64,2.29.94,3.44,0,0,0,0,0,.05a233.9,233.9,0,0,1,4.82,23.66c1.5,9.92,2.42,19.76,2.93,29.09.69,12.42.65,23.91.35,33.4,0,.16,0,.3,0,.46-.32,9.62-.91,17.13-1.33,21.43-.22,2.5-.38,3.92-.39,4" style="fill:none;stroke:#263238;stroke-linecap:round;stroke-linejoin:round"></path><path d="M96.76,181.09s0,0,0,0l0,0a22.3,22.3,0,0,1,4.11-2.87,22,22,0,0,1,5.11-1.93" style="fill:#fff;stroke:#263238;stroke-linecap:round;stroke-linejoin:round"></path><line x1="94.79" y1="193.74" x2="90.11" y2="189.5" style="fill:none;stroke:#263238;stroke-linecap:round;stroke-linejoin:round"></line><path d="M100.74,256.54h0a18.25,18.25,0,0,1,1.1-3.6,17.92,17.92,0,0,1,2.79-4.73,18.27,18.27,0,0,1,2.93-2.9" style="fill:none;stroke:#263238;stroke-linecap:round;stroke-linejoin:round"></path><path d="M104.47,269.7a12.87,12.87,0,0,0-7.31-7.21" style="fill:none;stroke:#263238;stroke-linecap:round;stroke-linejoin:round"></path><path d="M112.6,335c-1.57-1.88-2.75-9.07-3.39-12.92-.15-.93-.28-1.71-.38-2.28" style="fill:#fff;stroke:#263238;stroke-linecap:round;stroke-linejoin:round"></path><path d="M97.53,242.63s-.83-28.5,14.82-38.83" style="fill:none;stroke:#263238;stroke-linecap:round;stroke-linejoin:round"></path><path d="M96.12,303.79c-2.05,6.64,12.27,19.29,12.27,19.29s19-2.37,21-9-2.75-17.51-11.94-20.35S98.17,297.14,96.12,303.79Z" style="fill:#199E9E"></path><path d="M80.23,223.14c1.82,7.06,15.38,12.07,15.38,12.07s9.45-10.94,7.64-18S93.93,202.38,87.58,204,78.41,216.09,80.23,223.14Z" style="fill:#199E9E"></path><path d="M116,245.75a18.08,18.08,0,0,1-5.82,3.28c-2.16.59-4.74.23-6.21-1.46-1.82-2.1-1.33-5.35-.18-7.88,2.27-5,10.66-13.52,17.11-11.08C130.18,232.13,120.13,242.67,116,245.75Z" style="fill:#199E9E"></path><path d="M96.94,258.52c1.22,1.51,2.51,3.42,1.84,5.25-.59,1.62-2.58,2.36-4.28,2.1a11.47,11.47,0,0,1-4.61-2.25c-3.28-2.28-10-7.07-5.72-11.54C88.64,247.43,94.36,255.33,96.94,258.52Z" style="fill:#199E9E"></path><path d="M124.41,194.82a3.39,3.39,0,0,1,3.07,2.49c.28,1.63-1.07,3.06-2.38,4.07-3.26,2.51-13.06,9.3-15.25,2.75C107.78,198,120.08,194.35,124.41,194.82Z" style="fill:#199E9E"></path><path d="M106.35,173.3c2,.19,4-.54,6.06-.42s4.28,1.76,3.83,3.75c-.42,1.83-2.69,2.44-4.57,2.56a36.54,36.54,0,0,1-9.56-.66,3,3,0,0,1-1.94-1c-.82-1.21.49-2.83,1.88-3.26s3-.28,4.24-1Z" style="fill:#199E9E"></path><path d="M86.58,187.22c-2,.05-4-.81-6-.82s-4.38,1.48-4.06,3.48,2.52,2.62,4.39,2.86a36.58,36.58,0,0,0,9.58,0,2.91,2.91,0,0,0,2-.85c.9-1.15-.3-2.85-1.66-3.37s-3-.48-4.16-1.28Z" style="fill:#199E9E"></path><path d="M96.11,183s.93-8.09-1-8.75" style="fill:none;stroke:#263238;stroke-linecap:round;stroke-linejoin:round"></path><path d="M97.82,174.57c-1.22-2.76-2.55-5.64-5-7.41s-6.34-1.91-8.12.53c-2,2.72,0,6.86,3.05,8.31s6.6,1,9.94.55c0-.49,0-1,.08-1.49Z" style="fill:#199E9E"></path><path d="M119.61,335.71c.16.25-1.21,1.54,3.29,1.74,11.08.49,30.69-.2,38.08-10.26,10.56-14.36-13.69-13.11-11.31-21s28.41-1.37,33.52-12.69-13.83-9.16-12.93-15,20.75,1.79,27.33-10.21-10.79-5.62-8-10.59,24.93-25.64,16-30.29S176,244.32,169.11,246.61s-8.35-18.93-17.35-11.86-3.2,39.14-13.69,43.09c-7.8,2.94-3.51-8.53-13.14-8.12C111.85,270.28,107.42,315.19,119.61,335.71Z" style="fill:#199E9E"></path><g style="opacity:0.1"><path d="M119.61,335.71c.16.25-1.21,1.54,3.29,1.74,11.08.49,30.69-.2,38.08-10.26,10.56-14.36-13.69-13.11-11.31-21s28.41-1.37,33.52-12.69-13.83-9.16-12.93-15,20.75,1.79,27.33-10.21-10.79-5.62-8-10.59,24.93-25.64,16-30.29S176,244.32,169.11,246.61s-8.35-18.93-17.35-11.86-3.2,39.14-13.69,43.09c-7.8,2.94-3.51-8.53-13.14-8.12C111.85,270.28,107.42,315.19,119.61,335.71Z"></path></g><path d="M163.65,269.82s-43,29.39-52.43,104.38" style="fill:none;stroke:#263238;stroke-linecap:round;stroke-linejoin:round"></path><path d="M158.45,248s-13.08,17.28-12.92,39.82" style="fill:none;stroke:#263238;stroke-linecap:round;stroke-linejoin:round"></path><path d="M132.7,306.87s9.3-8.74,21.66-4.27" style="fill:none;stroke:#263238;stroke-linecap:round;stroke-linejoin:round"></path><path d="M126,320.15s-4.85-11.44-2.2-27.54" style="fill:none;stroke:#263238;stroke-linecap:round;stroke-linejoin:round"></path><path d="M106.48,347.24c-9.12.17-24.7-8.3-30.82-16.54s11.25-3.17,9.46-9.73-23.31-1.72-27.28-11.12,11.55-7.24,10.94-12.05S52.07,294,46.91,284s9-4.39,6.76-8.53-20-21.58-12.53-25.22,24,14.53,29.62,16.55,6.87-10.51,14.12-4.51,1.82,32.22,10.35,35.68c6.36,2.58,3.66-9.43,11-6.4C119,296.84,110.18,347.17,106.48,347.24Z" style="fill:#199E9E"></path><g style="opacity:0.30000000000000004"><path d="M106.48,347.24c-9.12.17-24.7-8.3-30.82-16.54s11.25-3.17,9.46-9.73-23.31-1.72-27.28-11.12,11.55-7.24,10.94-12.05S52.07,294,46.91,284s9-4.39,6.76-8.53-20-21.58-12.53-25.22,24,14.53,29.62,16.55,6.87-10.51,14.12-4.51,1.82,32.22,10.35,35.68c6.36,2.58,3.66-9.43,11-6.4C119,296.84,110.18,347.17,106.48,347.24Z" style="fill:#fff"></path></g><path d="M62.46,269.8s45.49,44.6,48.1,111.27" style="fill:none;stroke:#263238;stroke-linecap:round;stroke-linejoin:round"></path><path d="M61.35,290.46a47.43,47.43,0,0,1,19.07,3.8l0,0" style="fill:none;stroke:#263238;stroke-linecap:round;stroke-linejoin:round"></path><path d="M78.42,266.83s10.23,16.08,8.39,35.92" style="fill:none;stroke:#263238;stroke-linecap:round;stroke-linejoin:round"></path><path d="M93.34,314a20.13,20.13,0,0,0-18.75-4.68" style="fill:none;stroke:#263238;stroke-linecap:round;stroke-linejoin:round"></path><path d="M101.62,332.49s5.14-9.75,4-24.11" style="fill:none;stroke:#263238;stroke-linecap:round;stroke-linejoin:round"></path></g></svg>